# xmcd
#
# Track frame offsets:
#	150
#	17635
#	36480
#	55470
#	74515
#	92390
#	108520
#	122760
#	140067
#	156345
#	173820
#	188527
#	241837
#
# Disc length: 4136 seconds
#
# Revision: 3
# Processed by: cddbd v1.5.2PL0 Copyright (c) Steve Scherf et al.
# Submitted via: EasyCDDAExtractor 15.3.0.1
#
DISCID=b310260d
DTITLE=Jyve V - Solar
DYEAR=2001
DGENRE=Latin
TTITLE0=Vete De Mi
TTITLE1=Solo A Tu Lado Quiero Vivir
TTITLE2=Te Vuelvo A Encontrar
TTITLE3=Rumba
TTITLE4=Ayer
TTITLE5=What He Don't Know
TTITLE6=Cada Vez Que Pienso En Ti
TTITLE7=Dime Lo Que Quieres Que Haga
TTITLE8=Fantasy
TTITLE9=Como Te Miro
TTITLE10=I'm Still Standing
TTITLE11=I Want To Spend My Whole Life With You
TTITLE12=Data
EXTD=
EXTT0=
EXTT1=
EXTT2=
EXTT3=
EXTT4=
EXTT5=
EXTT6=
EXTT7=
EXTT8=
EXTT9=
EXTT10=
EXTT11=
EXTT12=
PLAYORDER=
